<?xml version="1.0" encoding="UTF-8" standalone="no"?>
<!DOCTYPE svg PUBLIC "-//W3C//DTD SVG 1.1//EN"
 "http://www.w3.org/Graphics/SVG/1.1/DTD/svg11.dtd">
<!-- Generated by graphviz version 2.26.3 (20100126.1600)
 -->
<!-- Title: dependency&#45;graph Pages: 1 -->
<svg width="1232pt" height="224pt"
 viewBox="0.00 0.00 1232.00 224.00" xmlns="http://www.w3.org/2000/svg" xmlns:xlink="http://www.w3.org/1999/xlink">
<g id="graph1" class="graph" transform="scale(1 1) rotate(0) translate(4 220)">
<title>dependency&#45;graph</title>
<polygon fill="white" stroke="white" points="-4,5 -4,-220 1229,-220 1229,5 -4,5"/>
<!-- gov.nasa.jpl.imce:imce.dynamic_scripts.generic_dsl_2.11:3.2.1 -->
<g id="node1" class="node"><title>gov.nasa.jpl.imce:imce.dynamic_scripts.generic_dsl_2.11:3.2.1</title>
<ellipse fill="none" stroke="black" cx="200" cy="-141" rx="198.904" ry="41.7193"/>
<text text-anchor="start" x="141" y="-156.233" font-family="Times Roman,serif" font-size="14.00">gov.nasa.jpl.imce</text>
<text text-anchor="start" x="67.5" y="-139.433" font-family="Times Roman,serif" font-size="14.00">imce.dynamic_scripts.generic_dsl_2.11</text>
<text text-anchor="start" x="181.5" y="-122.633" font-family="Times Roman,serif" font-size="14.00">3.2.1</text>
</g>
<!-- com.sksamuel.scapegoat:scalac&#45;scapegoat&#45;plugin_2.11:1.0.0 -->
<g id="node3" class="node"><title>com.sksamuel.scapegoat:scalac&#45;scapegoat&#45;plugin_2.11:1.0.0</title>
<ellipse fill="none" stroke="black" cx="591" cy="-141" rx="154.856" ry="41.7193"/>
<text text-anchor="start" x="506" y="-156.233" font-family="Times Roman,serif" font-size="14.00">com.sksamuel.scapegoat</text>
<text text-anchor="start" x="490" y="-139.433" font-family="Times Roman,serif" font-size="14.00">scalac&#45;scapegoat&#45;plugin_2.11</text>
<text text-anchor="start" x="572.5" y="-122.633" font-family="Times Roman,serif" font-size="14.00">1.0.0</text>
</g>
<!-- gov.nasa.jpl.imce:imce.dynamic_scripts.generic_dsl_2.11:3.2.1&#45;&gt;com.sksamuel.scapegoat:scalac&#45;scapegoat&#45;plugin_2.11:1.0.0 -->
<g id="edge6" class="edge"><title>gov.nasa.jpl.imce:imce.dynamic_scripts.generic_dsl_2.11:3.2.1&#45;&gt;com.sksamuel.scapegoat:scalac&#45;scapegoat&#45;plugin_2.11:1.0.0</title>
<path fill="none" stroke="black" d="M399.509,-141C408.305,-141 417.09,-141 425.793,-141"/>
<polygon fill="black" stroke="black" points="425.967,-144.5 435.967,-141 425.967,-137.5 425.967,-144.5"/>
</g>
<!-- org.scala&#45;lang:scala&#45;reflect:2.11.8 -->
<g id="node2" class="node"><title>org.scala&#45;lang:scala&#45;reflect:2.11.8</title>
<ellipse fill="none" stroke="black" cx="1144" cy="-175" rx="79.9031" ry="41.7193"/>
<text text-anchor="start" x="1096" y="-190.233" font-family="Times Roman,serif" font-size="14.00">org.scala&#45;lang</text>
<text text-anchor="start" x="1102" y="-173.433" font-family="Times Roman,serif" font-size="14.00">scala&#45;reflect</text>
<text text-anchor="start" x="1121" y="-156.633" font-family="Times Roman,serif" font-size="14.00">2.11.8</text>
</g>
<!-- com.sksamuel.scapegoat:scalac&#45;scapegoat&#45;plugin_2.11:1.0.0&#45;&gt;org.scala&#45;lang:scala&#45;reflect:2.11.8 -->
<g id="edge4" class="edge"><title>com.sksamuel.scapegoat:scalac&#45;scapegoat&#45;plugin_2.11:1.0.0&#45;&gt;org.scala&#45;lang:scala&#45;reflect:2.11.8</title>
<path fill="none" stroke="black" d="M691.156,-172.362C720.165,-180.037 752.083,-187.149 782,-191 890.439,-204.958 918.923,-198.487 1028,-191 1037.48,-190.349 1047.37,-189.402 1057.2,-188.289"/>
<polygon fill="black" stroke="black" points="1057.89,-191.732 1067.41,-187.074 1057.06,-184.781 1057.89,-191.732"/>
</g>
<!-- org.scaldi:scaldi_2.11:0.4 -->
<g id="node4" class="node"><title>org.scaldi:scaldi_2.11:0.4</title>
<ellipse fill="none" stroke="black" cx="905" cy="-141" rx="65.9683" ry="41.7193"/>
<text text-anchor="start" x="872.5" y="-156.233" font-family="Times Roman,serif" font-size="14.00">org.scaldi</text>
<text text-anchor="start" x="866.5" y="-139.433" font-family="Times Roman,serif" font-size="14.00">scaldi_2.11</text>
<text text-anchor="start" x="893.5" y="-122.633" font-family="Times Roman,serif" font-size="14.00">0.4</text>
</g>
<!-- com.sksamuel.scapegoat:scalac&#45;scapegoat&#45;plugin_2.11:1.0.0&#45;&gt;org.scaldi:scaldi_2.11:0.4 -->
<g id="edge8" class="edge"><title>com.sksamuel.scapegoat:scalac&#45;scapegoat&#45;plugin_2.11:1.0.0&#45;&gt;org.scaldi:scaldi_2.11:0.4</title>
<path fill="none" stroke="black" d="M746.16,-141C774.678,-141 803.277,-141 828.192,-141"/>
<polygon fill="black" stroke="black" points="828.271,-144.5 838.271,-141 828.271,-137.5 828.271,-144.5"/>
</g>
<!-- org.scala&#45;lang.modules:scala&#45;xml_2.11:1.0.2 -->
<g id="node5" class="node"><title>org.scala&#45;lang.modules:scala&#45;xml_2.11:1.0.2</title>
<ellipse fill="none" stroke="black" cx="905" cy="-41" rx="123.037" ry="41.7193"/>
<text text-anchor="start" x="826.5" y="-56.2333" font-family="Times Roman,serif" font-size="14.00">org.scala&#45;lang.modules</text>
<text text-anchor="start" x="853.5" y="-39.4333" font-family="Times Roman,serif" font-size="14.00">scala&#45;xml_2.11</text>
<text text-anchor="start" x="886.5" y="-22.6333" font-family="Times Roman,serif" font-size="14.00">1.0.2</text>
</g>
<!-- com.sksamuel.scapegoat:scalac&#45;scapegoat&#45;plugin_2.11:1.0.0&#45;&gt;org.scala&#45;lang.modules:scala&#45;xml_2.11:1.0.2 -->
<g id="edge10" class="edge"><title>com.sksamuel.scapegoat:scalac&#45;scapegoat&#45;plugin_2.11:1.0.0&#45;&gt;org.scala&#45;lang.modules:scala&#45;xml_2.11:1.0.2</title>
<path fill="none" stroke="black" d="M690.352,-109.359C727.297,-97.5934 769.188,-84.2523 806.093,-72.4991"/>
<polygon fill="black" stroke="black" points="807.394,-75.7581 815.86,-69.3885 805.27,-69.0881 807.394,-75.7581"/>
</g>
<!-- org.scaldi:scaldi_2.11:0.4&#45;&gt;org.scala&#45;lang:scala&#45;reflect:2.11.8 -->
<g id="edge2" class="edge"><title>org.scaldi:scaldi_2.11:0.4&#45;&gt;org.scala&#45;lang:scala&#45;reflect:2.11.8</title>
<path fill="none" stroke="black" d="M969.992,-150.246C996.7,-154.045 1028.03,-158.502 1056.69,-162.58"/>
<polygon fill="black" stroke="black" points="1056.31,-166.061 1066.71,-164.004 1057.3,-159.131 1056.31,-166.061"/>
</g>
</g>
</svg>
